<?xml version="1.0" encoding="UTF-8"?>
<!DOCTYPE svg PUBLIC "-//W3C//DTD SVG 1.1//EN" "http://www.w3.org/Graphics/SVG/1.1/DTD/svg11.dtd">
<svg xmlns="http://www.w3.org/2000/svg" version="1.1" width="2232px" height="932px" style="shape-rendering:geometricPrecision; text-rendering:geometricPrecision; image-rendering:optimizeQuality; fill-rule:evenodd; clip-rule:evenodd" xmlns:xlink="http://www.w3.org/1999/xlink">
<g><path style="opacity:1" fill="#fefffe" d="M 194.5,98.5 C 214.169,98.3334 233.836,98.5 253.5,99C 301.592,106.087 332.759,132.921 347,179.5C 348.517,185.752 349.517,192.086 350,198.5C 350.5,287.833 350.667,377.166 350.5,466.5C 326.167,466.5 301.833,466.5 277.5,466.5C 277.5,436.5 277.5,406.5 277.5,376.5C 259.5,376.5 241.5,376.5 223.5,376.5C 223.5,352.167 223.5,327.833 223.5,303.5C 241.5,303.5 259.5,303.5 277.5,303.5C 277.667,268.498 277.5,233.498 277,198.5C 273.5,183.667 264.333,174.5 249.5,171C 231.167,170.333 212.833,170.333 194.5,171C 178.836,177.158 170.669,188.658 170,205.5C 169.5,292.499 169.333,379.499 169.5,466.5C 145.167,466.5 120.833,466.5 96.5,466.5C 96.3333,378.166 96.5,289.833 97,201.5C 102.27,152.902 127.77,120.069 173.5,103C 180.57,101.155 187.57,99.6547 194.5,98.5 Z"/></g>
<g><path style="opacity:1" fill="#fefffe" d="M 896.5,98.5 C 920.509,98.1669 944.509,98.5003 968.5,99.5C 1009.5,195.5 1050.5,291.5 1091.5,387.5C 1066.51,388.5 1041.51,388.833 1016.5,388.5C 999.294,347.083 981.794,305.75 964,264.5C 963.5,331.833 963.333,399.166 963.5,466.5C 941.167,466.5 918.833,466.5 896.5,466.5C 896.5,343.833 896.5,221.167 896.5,98.5 Z"/></g>
<g><path style="opacity:1" fill="#fefffe" d="M 1125.5,98.5 C 1149.5,98.5 1173.5,98.5 1197.5,98.5C 1197.5,221.167 1197.5,343.833 1197.5,466.5C 1175.17,466.5 1152.83,466.5 1130.5,466.5C 1130.67,398.833 1130.5,331.166 1130,263.5C 1122.53,282.429 1114.53,301.096 1106,319.5C 1093.78,287.52 1081.95,255.354 1070.5,223C 1088.71,181.415 1107.04,139.915 1125.5,98.5 Z"/></g>
<g><path style="opacity:1" fill="#fefffe" d="M 1266.5,98.5 C 1308.5,98.3333 1350.5,98.5 1392.5,99C 1450.63,103.147 1491.8,131.647 1516,184.5C 1537.94,245.809 1524.78,298.142 1476.5,341.5C 1512.35,375.349 1529.01,417.015 1526.5,466.5C 1501.5,466.5 1476.5,466.5 1451.5,466.5C 1454.82,437.29 1446.15,412.457 1425.5,392C 1415.71,384.275 1404.71,378.941 1392.5,376C 1374.21,374.582 1355.87,374.082 1337.5,374.5C 1337.5,405.167 1337.5,435.833 1337.5,466.5C 1312.5,466.5 1287.5,466.5 1262.5,466.5C 1262.5,412.167 1262.5,357.833 1262.5,303.5C 1307.17,303.667 1351.83,303.5 1396.5,303C 1423.4,298.439 1440.57,282.939 1448,256.5C 1454.4,229.277 1448.24,205.444 1429.5,185C 1416.05,174.517 1400.72,169.183 1383.5,169C 1343.17,168.5 1302.83,168.333 1262.5,168.5C 1262.33,146.497 1262.5,124.497 1263,102.5C 1263.69,100.65 1264.86,99.3164 1266.5,98.5 Z"/></g>
<g><path style="opacity:1" fill="#fefffe" d="M 1673.5,98.5 C 1690.84,98.3334 1708.17,98.5001 1725.5,99C 1768.56,104.067 1798.39,126.567 1815,166.5C 1818.1,174.569 1820.1,182.902 1821,191.5C 1821.5,202.495 1821.67,213.495 1821.5,224.5C 1796.83,224.5 1772.17,224.5 1747.5,224.5C 1747.67,215.161 1747.5,205.827 1747,196.5C 1744.72,182.429 1736.55,174.263 1722.5,172C 1707.5,171.333 1692.5,171.333 1677.5,172C 1663.52,174.644 1654.69,182.811 1651,196.5C 1650.33,254.833 1650.33,313.167 1651,371.5C 1654.77,384.264 1663.27,391.764 1676.5,394C 1690.83,394.667 1705.17,394.667 1719.5,394C 1734.67,390.833 1743.83,381.667 1747,366.5C 1747.5,359.174 1747.67,351.841 1747.5,344.5C 1772.17,344.5 1796.83,344.5 1821.5,344.5C 1824.73,397.897 1802.4,436.064 1754.5,459C 1745.78,462.429 1736.78,464.763 1727.5,466C 1707.5,466.667 1687.5,466.667 1667.5,466C 1617.97,456.805 1587.81,427.638 1577,378.5C 1576.02,313.802 1576.35,249.136 1578,184.5C 1591.78,135.54 1623.62,106.873 1673.5,98.5 Z"/></g>
<g><path style="opacity:1" fill="#fefffe" d="M 1969.5,98.5 C 2004.19,94.0472 2035.85,101.547 2064.5,121C 2094.9,147.994 2107.9,181.828 2103.5,222.5C 2078.83,222.5 2054.17,222.5 2029.5,222.5C 2029.67,213.827 2029.5,205.16 2029,196.5C 2026.5,182 2018,173.5 2003.5,171C 1991.83,170.333 1980.17,170.333 1968.5,171C 1950.01,176.116 1942.18,188.283 1945,207.5C 1946.5,219.657 1952.67,228.49 1963.5,234C 1969.89,237.861 1976.55,241.194 1983.5,244C 2002.91,251.471 2022.25,259.137 2041.5,267C 2066.17,280.123 2084.67,299.29 2097,324.5C 2111.87,373.87 2099.37,414.704 2059.5,447C 2044,457.279 2027,463.612 2008.5,466C 1992.83,466.667 1977.17,466.667 1961.5,466C 1912.65,457.815 1882.48,429.648 1871,381.5C 1869.67,368.538 1869.17,355.538 1869.5,342.5C 1894.17,342.5 1918.83,342.5 1943.5,342.5C 1943.33,350.507 1943.5,358.507 1944,366.5C 1945.39,381.217 1953.22,390.384 1967.5,394C 1980.5,394.667 1993.5,394.667 2006.5,394C 2021.54,389.631 2028.87,379.631 2028.5,364C 2028.88,348.081 2021.88,336.748 2007.5,330C 1984.32,319.161 1960.65,309.494 1936.5,301C 1909,288.167 1888.83,268 1876,240.5C 1860.85,187.625 1875.68,145.458 1920.5,114C 1935.94,105.565 1952.27,100.399 1969.5,98.5 Z"/></g>
<g><path style="opacity:1" fill="#fefffe" d="M 550.5,170.5 C 561.833,170.5 573.167,170.5 584.5,170.5C 584.5,195.167 584.5,219.833 584.5,244.5C 545.307,240.171 517.141,255.504 500,290.5C 498.259,295.054 496.926,299.721 496,304.5C 495.5,358.832 495.333,413.166 495.5,467.5C 470.833,467.5 446.167,467.5 421.5,467.5C 421.5,369.833 421.5,272.167 421.5,174.5C 446.167,174.5 470.833,174.5 495.5,174.5C 495.334,179.179 495.501,183.845 496,188.5C 513.178,179.163 531.344,173.163 550.5,170.5 Z"/></g>
<g><path style="opacity:1" fill="#fefffe" d="M 700.5,170.5 C 721.54,170.071 742.54,170.571 763.5,172C 810.219,181.719 838.719,209.886 849,256.5C 850.262,264.113 850.762,271.78 850.5,279.5C 825.833,279.5 801.167,279.5 776.5,279.5C 777.773,260.834 769.44,249.334 751.5,245C 690.458,234.215 666.458,259.382 679.5,320.5C 679.36,338.217 679.86,355.883 681,373.5C 686.145,386.328 695.645,393.161 709.5,394C 721.5,394.667 733.5,394.667 745.5,394C 759.627,392.214 769.461,384.714 775,371.5C 776.225,366.915 776.725,362.248 776.5,357.5C 801.167,357.5 825.833,357.5 850.5,357.5C 849.297,404.519 827.63,438.353 785.5,459C 766.588,466.818 746.921,469.651 726.5,467.5C 674.833,471.261 637.333,450.261 614,404.5C 609.931,395.225 607.264,385.558 606,375.5C 605.333,339.167 605.333,302.833 606,266.5C 612.98,225.184 635.48,195.684 673.5,178C 682.417,174.691 691.417,172.191 700.5,170.5 Z"/></g>
<g><path style="opacity:1" fill="#fefffe" d="M 205.5,535.5 C 808.5,535.333 1411.5,535.5 2014.5,536C 2039,541.833 2054.17,557 2060,581.5C 2060.67,661.833 2060.67,742.167 2060,822.5C 2054.17,847 2039,862.167 2014.5,868C 1411.5,868.667 808.5,868.667 205.5,868C 183.057,862.892 168.224,849.392 161,827.5C 159.847,785.704 159.347,743.87 159.5,702C 159.347,660.13 159.847,618.296 161,576.5C 168.399,554.595 183.233,540.928 205.5,535.5 Z"/></g>
<g><path style="opacity:1" fill="#000285" d="M 302.5,593.5 C 316.478,592.287 329.645,594.954 342,601.5C 342.667,608.833 342.667,616.167 342,623.5C 341.586,623.957 341.086,624.291 340.5,624.5C 330.579,605.468 315.579,599.968 295.5,608C 285.893,617.116 283.393,627.95 288,640.5C 290.416,645.001 293.083,649.334 296,653.5C 308.667,667.5 322,680.833 336,693.5C 343.45,701.962 348.783,711.629 352,722.5C 353.081,759.085 335.247,776.585 298.5,775C 285.961,773.565 274.294,769.565 263.5,763C 264.971,753.929 265.971,744.762 266.5,735.5C 267.822,735.33 268.989,735.663 270,736.5C 277.965,759.567 293.799,768.067 317.5,762C 328.565,755.7 333.065,746.2 331,733.5C 329.121,724.409 325.121,716.409 319,709.5C 306.029,697.53 293.362,685.196 281,672.5C 270.022,659.868 265.355,645.202 267,628.5C 271.451,609.215 283.285,597.548 302.5,593.5 Z"/></g>
<g><path style="opacity:1" fill="#000285" d="M 1399.5,594.5 C 1400.87,594.343 1402.21,594.51 1403.5,595C 1401.67,599.817 1399.84,604.65 1398,609.5C 1397.44,610.022 1396.77,610.355 1396,610.5C 1376.67,606.458 1357.17,605.458 1337.5,607.5C 1337.5,629.833 1337.5,652.167 1337.5,674.5C 1355.62,674.41 1373.62,673.076 1391.5,670.5C 1391.83,670.833 1392.17,671.167 1392.5,671.5C 1391.02,676.416 1389.85,681.416 1389,686.5C 1388.48,687.516 1387.65,688.182 1386.5,688.5C 1370.28,685.843 1353.94,684.51 1337.5,684.5C 1337.5,709.833 1337.5,735.167 1337.5,760.5C 1360.08,760.907 1382.24,758.24 1404,752.5C 1403.25,759.124 1402.41,765.791 1401.5,772.5C 1371.51,771.76 1341.51,771.26 1311.5,771C 1313.74,763.709 1314.9,756.209 1315,748.5C 1315.67,705.5 1315.67,662.5 1315,619.5C 1314.9,611.791 1313.74,604.291 1311.5,597C 1341.01,596.854 1370.35,596.021 1399.5,594.5 Z"/></g>
<g><path style="opacity:1" fill="#000285" d="M 717.5,637.5 C 729.662,637.726 741.662,639.226 753.5,642C 756.833,649.333 760.167,656.667 763.5,664C 763,664.5 762.5,665 762,665.5C 751.066,653.12 737.232,646.787 720.5,646.5C 687.239,648.963 670.239,666.963 669.5,700.5C 669.536,718.777 675.036,735.111 686,749.5C 703.596,765.686 723.763,769.853 746.5,762C 748.333,760.833 749.833,759.333 751,757.5C 751.729,744.778 751.229,732.111 749.5,719.5C 758.173,719.334 766.84,719.5 775.5,720C 774.059,724.007 773.226,728.174 773,732.5C 772.667,741.5 772.333,750.5 772,759.5C 761.412,768.035 749.245,772.868 735.5,774C 710.897,776.933 688.564,771.266 668.5,757C 646.425,736.201 640.259,711.367 650,682.5C 658.36,662.475 672.86,648.975 693.5,642C 701.512,639.762 709.512,638.262 717.5,637.5 Z"/></g>
<g><path style="opacity:1" fill="#000285" d="M 927.5,637.5 C 938.32,637.893 948.986,639.393 959.5,642C 962.833,649.333 966.167,656.667 969.5,664C 969,664.5 968.5,665 968,665.5C 951.404,648.059 931.571,642.892 908.5,650C 896.316,655.499 888.15,664.666 884,677.5C 878.729,699.185 880.729,720.185 890,740.5C 903.01,761.286 921.51,768.786 945.5,763C 956.904,759.753 965.904,753.253 972.5,743.5C 972.833,743.833 973.167,744.167 973.5,744.5C 970.5,751.833 967.5,759.167 964.5,766.5C 940.91,775.635 917.244,775.802 893.5,767C 871.855,756.245 859.688,738.745 857,714.5C 855.152,675.016 873.318,650.183 911.5,640C 916.972,639.133 922.306,638.3 927.5,637.5 Z"/></g>
<g><path style="opacity:1" fill="#000285" d="M 1046.5,637.5 C 1049.9,637.18 1053.23,637.513 1056.5,638.5C 1073,673.5 1089.5,708.5 1106,743.5C 1110.62,753.247 1116.12,762.413 1122.5,771C 1111.83,771.667 1101.17,771.667 1090.5,771C 1091.23,765.711 1090.4,760.544 1088,755.5C 1084.3,747.258 1080.46,739.091 1076.5,731C 1056.16,730.167 1035.83,730.334 1015.5,731.5C 1011.06,740.045 1006.89,748.711 1003,757.5C 1001.03,761.963 1000.19,766.629 1000.5,771.5C 993.492,771.666 986.492,771.5 979.5,771C 982.208,766.416 985.042,761.916 988,757.5C 1007.79,717.596 1027.29,677.596 1046.5,637.5 Z"/></g>
<g><path style="opacity:1" fill="#000285" d="M 1619.5,637.5 C 1622.9,637.18 1626.23,637.513 1629.5,638.5C 1646,673.5 1662.5,708.5 1679,743.5C 1683.62,753.247 1689.12,762.413 1695.5,771C 1684.83,771.667 1674.17,771.667 1663.5,771C 1664.23,765.711 1663.4,760.544 1661,755.5C 1657.3,747.258 1653.46,739.091 1649.5,731C 1629.16,730.167 1608.83,730.334 1588.5,731.5C 1584.06,740.045 1579.89,748.711 1576,757.5C 1574.03,761.963 1573.19,766.629 1573.5,771.5C 1566.49,771.666 1559.49,771.5 1552.5,771C 1555.21,766.416 1558.04,761.916 1561,757.5C 1580.79,717.596 1600.29,677.596 1619.5,637.5 Z"/></g>
<g><path style="opacity:1" fill="#000285" d="M 1945.5,638.5 C 1956.55,638.597 1967.22,640.597 1977.5,644.5C 1977.67,650.842 1977.5,657.175 1977,663.5C 1976.69,664.308 1976.19,664.975 1975.5,665.5C 1972.78,660.601 1969.44,656.101 1965.5,652C 1955,644.554 1945.16,645.388 1936,654.5C 1932.02,663.741 1933.02,672.408 1939,680.5C 1950.31,692.142 1961.98,703.475 1974,714.5C 1986.94,729.347 1988.27,745.014 1978,761.5C 1965.83,773.503 1951.33,777.67 1934.5,774C 1926.72,772.796 1919.39,770.296 1912.5,766.5C 1911.56,758.79 1911.9,751.124 1913.5,743.5C 1914.27,742.289 1915.11,742.289 1916,743.5C 1922.46,762.643 1935.29,769.476 1954.5,764C 1963.32,758.559 1966.49,750.726 1964,740.5C 1962.53,736.221 1960.53,732.221 1958,728.5C 1951.43,721.261 1944.26,714.761 1936.5,709C 1930.63,703.469 1925.13,697.635 1920,691.5C 1907.72,670.627 1911.89,654.127 1932.5,642C 1936.92,640.648 1941.25,639.481 1945.5,638.5 Z"/></g>
<g><path style="opacity:1" fill="#000285" d="M 552.5,639.5 C 561.839,639.334 571.173,639.5 580.5,640C 609.735,644.895 620.902,661.728 614,690.5C 609.196,699.837 602.03,706.837 592.5,711.5C 605.156,730.993 619.156,749.493 634.5,767C 636.5,768.333 638.5,769.667 640.5,771C 629.818,771.832 619.151,771.666 608.5,770.5C 596.948,751.951 584.615,733.951 571.5,716.5C 565.251,716.812 558.917,716.478 552.5,715.5C 551.873,734.28 552.873,752.946 555.5,771.5C 546.143,771.832 536.81,771.498 527.5,770.5C 528.821,765.934 529.655,761.267 530,756.5C 531.986,722.833 531.986,689.166 530,655.5C 529.655,650.733 528.821,646.066 527.5,641.5C 535.99,640.833 544.324,640.167 552.5,639.5 Z"/></g>
<g><path style="opacity:1" fill="#000285" d="M 379.5,640.5 C 388.833,640.5 398.167,640.5 407.5,640.5C 406.218,647.096 405.385,653.763 405,660.5C 404.045,687.208 404.378,713.874 406,740.5C 409.596,751.096 416.762,757.929 427.5,761C 440.499,763.744 453.166,762.744 465.5,758C 471.831,754.002 476.331,748.502 479,741.5C 480.135,726.051 480.635,710.551 480.5,695C 480.333,680.833 480.167,666.667 480,652.5C 479.608,648.472 479.108,644.472 478.5,640.5C 484.509,640.334 490.509,640.501 496.5,641C 495.036,647.035 494.203,653.201 494,659.5C 493.946,686.535 493.28,713.535 492,740.5C 487.5,757 477,767.5 460.5,772C 440.404,776.824 421.071,774.824 402.5,766C 392.316,759.142 386.15,749.642 384,737.5C 383.719,710.49 383.052,683.49 382,656.5C 381.639,651.072 380.805,645.739 379.5,640.5 Z"/></g>
<g><path style="opacity:1" fill="#000285" d="M 801.5,640.5 C 810.833,640.5 820.167,640.5 829.5,640.5C 828.273,646.768 827.439,653.101 827,659.5C 826.333,690.167 826.333,720.833 827,751.5C 827.385,758.237 828.218,764.904 829.5,771.5C 820.143,771.832 810.81,771.498 801.5,770.5C 802.878,765.605 803.711,760.605 804,755.5C 806,722.5 806,689.5 804,656.5C 803.639,651.072 802.805,645.739 801.5,640.5 Z"/></g>
<g><path style="opacity:1" fill="#000285" d="M 1136.5,640.5 C 1145.83,640.5 1155.17,640.5 1164.5,640.5C 1163.12,647.082 1162.28,653.748 1162,660.5C 1161.5,694.165 1161.33,727.832 1161.5,761.5C 1179.35,762.099 1196.85,760.099 1214,755.5C 1213.38,761.123 1212.55,766.79 1211.5,772.5C 1186.52,771.871 1161.52,771.204 1136.5,770.5C 1137.82,765.934 1138.65,761.267 1139,756.5C 1140.99,722.833 1140.99,689.166 1139,655.5C 1138.57,650.412 1137.74,645.412 1136.5,640.5 Z"/></g>
<g><path style="opacity:1" fill="#000285" d="M 1422.5,641.5 C 1433.99,640.505 1445.65,640.172 1457.5,640.5C 1457.95,644.693 1459.12,648.693 1461,652.5C 1469.64,664.641 1478.47,676.641 1487.5,688.5C 1499.05,675.081 1509.88,661.081 1520,646.5C 1520.81,644.564 1521.31,642.564 1521.5,640.5C 1528.51,640.334 1535.51,640.5 1542.5,641C 1540.04,642.458 1537.87,644.291 1536,646.5C 1522.69,663.976 1509.19,681.31 1495.5,698.5C 1510.33,718.833 1525.17,739.167 1540,759.5C 1543.17,764 1547,767.833 1551.5,771C 1540.15,771.832 1528.82,771.666 1517.5,770.5C 1516.4,765.024 1514.23,760.024 1511,755.5C 1501,742.167 1491,728.833 1481,715.5C 1469.33,730.167 1457.67,744.833 1446,759.5C 1443.34,763.144 1441.51,767.144 1440.5,771.5C 1433.49,771.666 1426.49,771.5 1419.5,771C 1423.67,766.833 1427.83,762.667 1432,758.5C 1445.64,740.69 1459.48,723.023 1473.5,705.5C 1459.86,686.692 1446.03,668.026 1432,649.5C 1429.23,646.223 1426.07,643.557 1422.5,641.5 Z"/></g>
<g><path style="opacity:1" fill="#000285" d="M 1723.5,640.5 C 1728.51,640.334 1733.51,640.501 1738.5,641C 1757.87,675.581 1777.37,710.081 1797,744.5C 1816.45,709.755 1836.29,675.255 1856.5,641C 1860.49,640.501 1864.49,640.334 1868.5,640.5C 1873.53,676.51 1878.69,712.51 1884,748.5C 1885.06,756.178 1887.23,763.511 1890.5,770.5C 1880.52,771.666 1870.52,771.832 1860.5,771C 1861.61,767.961 1862.27,764.794 1862.5,761.5C 1858.84,732.411 1854.68,703.411 1850,674.5C 1831.5,706.833 1813,739.167 1794.5,771.5C 1791.63,770.878 1788.8,770.211 1786,769.5C 1768,737.5 1750,705.5 1732,673.5C 1727.35,702.058 1723.51,730.725 1720.5,759.5C 1721.36,763.453 1721.7,767.453 1721.5,771.5C 1714.49,771.666 1707.49,771.5 1700.5,771C 1704.24,765.797 1706.4,759.964 1707,753.5C 1713.57,715.978 1719.07,678.311 1723.5,640.5 Z"/></g>
<g><path style="opacity:1" fill="#fefffe" d="M 561.5,646.5 C 582.284,644.949 592.951,654.616 593.5,675.5C 592.251,701.552 578.751,712.218 553,707.5C 552.5,687.836 552.333,668.169 552.5,648.5C 555.689,648.142 558.689,647.475 561.5,646.5 Z"/></g>
<g><path style="opacity:1" fill="#fefffe" d="M 1045.5,667.5 C 1046.38,667.369 1047.04,667.702 1047.5,668.5C 1055.23,685.621 1063.23,702.621 1071.5,719.5C 1054.51,720.666 1037.51,720.833 1020.5,720C 1029.25,702.676 1037.58,685.176 1045.5,667.5 Z"/></g>
<g><path style="opacity:1" fill="#fefffe" d="M 1618.5,667.5 C 1619.38,667.369 1620.04,667.702 1620.5,668.5C 1628.23,685.621 1636.23,702.621 1644.5,719.5C 1627.51,720.666 1610.51,720.833 1593.5,720C 1602.25,702.676 1610.58,685.176 1618.5,667.5 Z"/></g>
</svg>
